<svg width="24" height="24" viewBox="0 0 24 24" fill="none" xmlns="http://www.w3.org/2000/svg">
<path d="M20.5 7.5V19C20.5 20.933 18.933 22.5 17 22.5H7C5.067 22.5 3.5 20.933 3.5 19V7.5H20.5Z" stroke="#242424"/>
<path d="M9 19C9 17.8954 9.89543 17 11 17H13C14.1046 17 15 17.8954 15 19V23H9V19Z" fill="#242424"/>
<path d="M2.44293 4.3424C2.76439 2.41365 4.43315 1 6.38851 1H11L9.54949 9.70307C9.2324 11.6056 7.58635 13 5.6576 13C3.21947 13 1.36488 10.8107 1.7657 8.40578L2.44293 4.3424Z" fill="#242424"/>
<path d="M21.5571 4.3424C21.2356 2.41365 19.5668 1 17.6115 1H13L14.4505 9.70307C14.7676 11.6056 16.4137 13 18.3424 13C20.7805 13 22.6351 10.8107 22.2343 8.40578L21.5571 4.3424Z" fill="#242424"/>
<path d="M9 1H15L15.6678 9.01382C15.8466 11.1596 14.1533 13 12 13C9.84674 13 8.15336 11.1596 8.33218 9.01382L9 1Z" fill="#242424"/>
</svg>
