<svg width="24" height="24" viewBox="0 0 24 24" fill="none" xmlns="http://www.w3.org/2000/svg">
<path d="M9 6C9 4.34315 10.3431 3 12 3V3C13.6569 3 15 4.34315 15 6V10H9V6Z" stroke="black" stroke-width="2"/>
<path fill-rule="evenodd" clip-rule="evenodd" d="M3.4897 11.4243C3.23151 9.61696 4.6339 8 6.45955 8H17.5415C19.3671 8 20.7695 9.61696 20.5113 11.4243L19.3685 19.4243C19.1573 20.9022 17.8916 22 16.3986 22H7.60241C6.10946 22 4.84369 20.9022 4.63256 19.4243L3.4897 11.4243ZM10.0005 12C10.0005 12.5523 9.5528 13 9.00052 13C8.44823 13 8.00052 12.5523 8.00052 12C8.00052 11.4477 8.44823 11 9.00052 11C9.5528 11 10.0005 11.4477 10.0005 12ZM15.0005 13C15.5528 13 16.0005 12.5523 16.0005 12C16.0005 11.4477 15.5528 11 15.0005 11C14.4482 11 14.0005 11.4477 14.0005 12C14.0005 12.5523 14.4482 13 15.0005 13Z" fill="black"/>
</svg>
