<svg width="24" height="24" viewBox="0 0 24 24" fill="none" xmlns="http://www.w3.org/2000/svg">
<g clip-path="url(#clip0_141_1580)">
<path fill-rule="evenodd" clip-rule="evenodd" d="M3.42549 13.3169C3.37559 14.1719 3.69348 15.0074 4.29907 15.613L9.87751 21.1915C11.8301 23.1441 14.996 23.1441 16.9486 21.1915L21.1912 16.9488C23.1438 14.9962 23.1438 11.8304 21.1912 9.87777L15.6128 4.29933C15.0072 3.69374 14.1717 3.37585 13.3167 3.42574L7.52372 3.76382C5.49803 3.88204 3.88178 5.49829 3.76356 7.52398L3.42549 13.3169ZM12.4783 12.4783C13.6499 11.3067 13.6491 9.40649 12.4766 8.23398C11.3041 7.06146 9.40381 7.0607 8.23224 8.23228C7.06067 9.40385 7.06143 11.3041 8.23394 12.4766C9.40645 13.6491 11.3067 13.6499 12.4783 12.4783Z" fill="#242424"/>
</g>
<defs>
<clipPath id="clip0_141_1580">
<rect width="24" height="24" fill="white"/>
</clipPath>
</defs>
</svg>
