<svg width="24" height="24" viewBox="0 0 24 24" fill="none" xmlns="http://www.w3.org/2000/svg">
<path fill-rule="evenodd" clip-rule="evenodd" d="M13.47 17.8248L15.7462 21.7674C15.9376 22.0989 16.4213 22.0833 16.591 21.7402L17.6482 19.602C17.7339 19.4286 17.9156 19.3237 18.1087 19.3361L20.489 19.4897C20.871 19.5143 21.1263 19.1032 20.9349 18.7717L18.6046 14.7354C17.3564 16.3279 15.5449 17.4578 13.47 17.8248ZM8.25381 21.7674L10.5298 17.8252C8.45477 17.4587 6.64296 16.3293 5.39444 14.7371L3.06509 18.7717C2.87367 19.1032 3.129 19.5143 3.51103 19.4897L5.89134 19.3361C6.08443 19.3237 6.26608 19.4286 6.35184 19.602L7.40905 21.7402C7.57873 22.0833 8.0624 22.0989 8.25381 21.7674ZM12.4335 5.71591C12.2622 5.3445 11.7343 5.3445 11.563 5.71591L10.646 7.70413L8.47166 7.96193C8.06549 8.01008 7.90237 8.51211 8.20266 8.78981L9.81018 10.2764L9.38346 12.4239C9.30375 12.8251 9.7308 13.1354 10.0877 12.9356L11.9983 11.8661L13.9089 12.9356C14.2658 13.1354 14.6928 12.8251 14.6131 12.4239L14.1864 10.2764L15.7939 8.78981C16.0942 8.51211 15.9311 8.01008 15.5249 7.96193L13.3506 7.70413L12.4335 5.71591ZM19.1885 9.56544C19.1885 13.5362 15.9696 16.7551 11.9988 16.7551C8.02807 16.7551 4.80913 13.5362 4.80913 9.56544C4.80913 5.59467 8.02807 2.37573 11.9988 2.37573C15.9696 2.37573 19.1885 5.59467 19.1885 9.56544Z" fill="#242424"/>
</svg>
