<svg width="24" height="24" viewBox="0 0 24 24" fill="none" xmlns="http://www.w3.org/2000/svg">
<path d="M8.74577 4.46334C4.47596 3.86326 4.50904 9.24526 4.50904 9.24526C4.50904 9.24526 4.57093 11.1922 6.67759 13.7809C7.44447 14.724 8.10553 15.4734 8.63792 16.0462C9.41301 16.8792 10.2704 18.3783 10.4783 19.4553L10.735 20.7816C10.7418 20.817 10.7611 20.8499 10.7889 20.8751C10.8168 20.9003 10.852 20.9166 10.8902 20.922C10.9283 20.9273 10.9667 20.9214 11.0004 20.9048C11.0341 20.8883 11.0617 20.8619 11.078 20.8298L11.6891 19.6255C12.186 18.6475 13.4229 17.4428 14.3978 16.8557C15.0675 16.4518 15.9108 15.9139 16.9079 15.2186C19.6462 13.3109 20.2439 11.4566 20.2439 11.4566C20.2439 11.4566 21.7579 6.29207 17.4881 5.69199C15.2215 5.37345 12.6503 8.39766 12.3758 10.3509C12.6503 8.39766 11.0126 4.78192 8.74577 4.46334Z" fill="#242424"/>
</svg>
